<svg xmlns="http://www.w3.org/2000/svg" xmlns:xlink="http://www.w3.org/1999/xlink" width="500" zoomAndPan="magnify" viewBox="0 0 375 374.999991" height="500" preserveAspectRatio="xMidYMid meet" version="1.0"><defs><g/></defs><g fill="#ff1616" fill-opacity="1"><g transform="translate(124.360206, 190.04158)"><g><path d="M 26.796875 -7.328125 C 25.984375 -4.742188 24.613281 -2.785156 22.6875 -1.453125 C 20.769531 -0.128906 18.335938 0.53125 15.390625 0.53125 C 13.578125 0.53125 11.894531 0.222656 10.34375 -0.390625 C 8.800781 -1.003906 7.429688 -1.914062 6.234375 -3.125 C 4.847656 -4.507812 3.816406 -6.082031 3.140625 -7.84375 C 2.472656 -9.601562 2.140625 -11.597656 2.140625 -13.828125 C 2.140625 -18.128906 3.378906 -21.601562 5.859375 -24.25 C 8.347656 -26.894531 11.628906 -28.21875 15.703125 -28.21875 C 17.210938 -28.21875 18.820312 -28.019531 20.53125 -27.625 C 22.238281 -27.226562 24.078125 -26.625 26.046875 -25.8125 L 26.046875 -19.4375 L 23.953125 -19.4375 C 23.492188 -21.757812 22.570312 -23.472656 21.1875 -24.578125 C 19.8125 -25.679688 17.878906 -26.234375 15.390625 -26.234375 C 12.429688 -26.234375 10.191406 -25.179688 8.671875 -23.078125 C 7.148438 -20.984375 6.390625 -17.898438 6.390625 -13.828125 C 6.390625 -9.765625 7.148438 -6.6875 8.671875 -4.59375 C 10.191406 -2.5 12.429688 -1.453125 15.390625 -1.453125 C 17.453125 -1.453125 19.148438 -1.941406 20.484375 -2.921875 C 21.828125 -3.910156 22.796875 -5.378906 23.390625 -7.328125 Z M 26.796875 -7.328125 "/></g></g></g><g fill="#ff1616" fill-opacity="1"><g transform="translate(153.438394, 190.04158)"><g><path d="M 1.5625 0 L 1.5625 -1.96875 L 4.640625 -1.96875 L 4.640625 -26.921875 L 1.375 -26.921875 L 1.375 -28.890625 L 8.0625 -28.890625 L 8.0625 -16.21875 C 8.6875 -17.5625 9.503906 -18.570312 10.515625 -19.25 C 11.523438 -19.925781 12.695312 -20.265625 14.03125 -20.265625 C 16.207031 -20.265625 17.804688 -19.640625 18.828125 -18.390625 C 19.859375 -17.140625 20.375 -15.191406 20.375 -12.546875 L 20.375 -1.96875 L 23.421875 -1.96875 L 23.421875 0 L 14 0 L 14 -1.96875 L 16.953125 -1.96875 L 16.953125 -11.46875 C 16.953125 -13.882812 16.65625 -15.535156 16.0625 -16.421875 C 15.476562 -17.304688 14.429688 -17.75 12.921875 -17.75 C 11.335938 -17.75 10.128906 -17.171875 9.296875 -16.015625 C 8.472656 -14.867188 8.0625 -13.191406 8.0625 -10.984375 L 8.0625 -1.96875 L 11.03125 -1.96875 L 11.03125 0 Z M 1.5625 0 "/></g></g></g><g fill="#ff1616" fill-opacity="1"><g transform="translate(177.914546, 190.04158)"><g><path d="M 20.609375 -9.5 L 5.890625 -9.5 L 5.890625 -9.359375 C 5.890625 -6.691406 6.390625 -4.679688 7.390625 -3.328125 C 8.390625 -1.972656 9.867188 -1.296875 11.828125 -1.296875 C 13.316406 -1.296875 14.539062 -1.6875 15.5 -2.46875 C 16.46875 -3.257812 17.140625 -4.429688 17.515625 -5.984375 L 20.265625 -5.984375 C 19.722656 -3.816406 18.71875 -2.1875 17.25 -1.09375 C 15.78125 -0.0078125 13.851562 0.53125 11.46875 0.53125 C 8.582031 0.53125 6.265625 -0.414062 4.515625 -2.3125 C 2.765625 -4.207031 1.890625 -6.726562 1.890625 -9.875 C 1.890625 -12.988281 2.75 -15.5 4.46875 -17.40625 C 6.1875 -19.3125 8.445312 -20.265625 11.25 -20.265625 C 14.226562 -20.265625 16.515625 -19.34375 18.109375 -17.5 C 19.710938 -15.664062 20.546875 -13 20.609375 -9.5 Z M 16.578125 -11.46875 C 16.503906 -13.769531 16.015625 -15.503906 15.109375 -16.671875 C 14.210938 -17.847656 12.925781 -18.4375 11.25 -18.4375 C 9.675781 -18.4375 8.4375 -17.847656 7.53125 -16.671875 C 6.632812 -15.492188 6.085938 -13.757812 5.890625 -11.46875 Z M 16.578125 -11.46875 "/></g></g></g><g fill="#ff1616" fill-opacity="1"><g transform="translate(200.405138, 190.04158)"><g><path d="M 19.546875 -5.921875 C 19.066406 -3.816406 18.140625 -2.210938 16.765625 -1.109375 C 15.390625 -0.015625 13.613281 0.53125 11.4375 0.53125 C 8.5625 0.53125 6.25 -0.414062 4.5 -2.3125 C 2.757812 -4.207031 1.890625 -6.726562 1.890625 -9.875 C 1.890625 -13.03125 2.757812 -15.550781 4.5 -17.4375 C 6.25 -19.320312 8.5625 -20.265625 11.4375 -20.265625 C 12.6875 -20.265625 13.925781 -20.117188 15.15625 -19.828125 C 16.394531 -19.535156 17.640625 -19.09375 18.890625 -18.5 L 18.890625 -13.453125 L 16.90625 -13.453125 C 16.644531 -15.191406 16.078125 -16.457031 15.203125 -17.25 C 14.335938 -18.039062 13.09375 -18.4375 11.46875 -18.4375 C 9.625 -18.4375 8.234375 -17.71875 7.296875 -16.28125 C 6.359375 -14.851562 5.890625 -12.71875 5.890625 -9.875 C 5.890625 -7.03125 6.351562 -4.890625 7.28125 -3.453125 C 8.21875 -2.015625 9.613281 -1.296875 11.46875 -1.296875 C 12.945312 -1.296875 14.125 -1.675781 15 -2.4375 C 15.875 -3.207031 16.472656 -4.367188 16.796875 -5.921875 Z M 19.546875 -5.921875 "/></g></g></g><g fill="#ff1616" fill-opacity="1"><g transform="translate(221.689557, 190.04158)"><g><path d="M 10.875 0 L 1.296875 0 L 1.296875 -1.96875 L 4.375 -1.96875 L 4.375 -26.921875 L 1.09375 -26.921875 L 1.09375 -28.890625 L 7.796875 -28.890625 L 7.796875 -10.078125 L 16.109375 -17.75 L 13.265625 -17.75 L 13.265625 -19.734375 L 22.203125 -19.734375 L 22.203125 -17.75 L 18.828125 -17.75 L 12.953125 -12.328125 L 20.453125 -1.96875 L 23.296875 -1.96875 L 23.296875 0 L 13.5625 0 L 13.5625 -1.96875 L 16.390625 -1.96875 L 10.484375 -10.078125 L 7.796875 -7.578125 L 7.796875 -1.96875 L 10.875 -1.96875 Z M 10.875 0 "/></g></g></g><g fill="#ff1616" fill-opacity="1"><g transform="translate(244.718295, 190.04158)"><g><path d="M 6.6875 -27.71875 L 6.6875 -17.40625 L 3.734375 -17.40625 L 3.734375 -27.71875 Z M 6.6875 -27.71875 "/></g></g></g><g fill="#ff1616" fill-opacity="1"><g transform="translate(255.165663, 190.04158)"><g><path d="M 2.09375 0 L 2.09375 -1.96875 L 5.625 -1.96875 L 5.625 -25.734375 L 2.09375 -25.734375 L 2.09375 -27.71875 L 24.40625 -27.71875 L 24.40625 -21.546875 L 22.125 -21.546875 L 22.125 -25.4375 L 9.390625 -25.4375 L 9.390625 -16.15625 L 18.46875 -16.15625 L 18.46875 -19.625 L 20.75 -19.625 L 20.75 -10.40625 L 18.46875 -10.40625 L 18.46875 -13.890625 L 9.390625 -13.890625 L 9.390625 -2.28125 L 22.421875 -2.28125 L 22.421875 -6.15625 L 24.703125 -6.15625 L 24.703125 0 Z M 2.09375 0 "/></g></g></g><g fill="#ff1616" fill-opacity="1"><g transform="translate(282.907777, 190.04158)"><g><path d="M 7.609375 -10.046875 L 17.78125 -10.046875 L 12.703125 -23.21875 Z M -0.21875 0 L -0.21875 -1.96875 L 2.203125 -1.96875 L 12.078125 -27.71875 L 15.203125 -27.71875 L 25.09375 -1.96875 L 27.828125 -1.96875 L 27.828125 0 L 17.75 0 L 17.75 -1.96875 L 20.828125 -1.96875 L 18.5 -8.0625 L 6.84375 -8.0625 L 4.53125 -1.96875 L 7.578125 -1.96875 L 7.578125 0 Z M -0.21875 0 "/></g></g></g><g fill="#ff1616" fill-opacity="1"><g transform="translate(310.352985, 190.04158)"><g><path d="M 7.265625 0 L 7.265625 -1.96875 L 10.796875 -1.96875 L 10.796875 -25.5 L 2.65625 -25.5 L 2.65625 -21.171875 L 0.375 -21.171875 L 0.375 -27.71875 L 24.984375 -27.71875 L 24.984375 -21.171875 L 22.703125 -21.171875 L 22.703125 -25.5 L 14.546875 -25.5 L 14.546875 -1.96875 L 18.09375 -1.96875 L 18.09375 0 Z M 7.265625 0 "/></g></g></g><g fill="#704c13" fill-opacity="1"><g transform="translate(124.360206, 210.644429)"><g/></g></g><g fill="#704c13" fill-opacity="1"><g transform="translate(137.239797, 210.644429)"><g/></g></g><g fill="#ff1616" fill-opacity="1"><g transform="translate(150.118017, 210.644429)"><g><path d="M 2.84375 -4.265625 L 4.328125 -4.265625 C 4.890625 -4.265625 5.316406 -4.414062 5.609375 -4.71875 C 5.898438 -5.019531 6.046875 -5.457031 6.046875 -6.03125 C 6.046875 -6.601562 5.898438 -7.039062 5.609375 -7.34375 C 5.316406 -7.644531 4.890625 -7.796875 4.328125 -7.796875 L 2.84375 -7.796875 Z M 0.640625 0 L 0.640625 -0.59375 L 1.703125 -0.59375 L 1.703125 -7.796875 L 0.640625 -7.796875 L 0.640625 -8.390625 L 4.609375 -8.390625 C 5.441406 -8.390625 6.101562 -8.175781 6.59375 -7.75 C 7.09375 -7.332031 7.34375 -6.757812 7.34375 -6.03125 C 7.34375 -5.3125 7.09375 -4.738281 6.59375 -4.3125 C 6.101562 -3.882812 5.441406 -3.671875 4.609375 -3.671875 L 2.84375 -3.671875 L 2.84375 -0.59375 L 4.140625 -0.59375 L 4.140625 0 Z M 0.640625 0 "/></g></g></g><g fill="#ff1616" fill-opacity="1"><g transform="translate(167.08681, 210.644429)"><g><path d="M 2.359375 -0.59375 L 3.34375 -0.59375 L 3.34375 0 L 0.328125 0 L 0.328125 -0.59375 L 1.328125 -0.59375 L 1.328125 -8.15625 L 0.328125 -8.15625 L 0.328125 -8.75 L 2.359375 -8.75 Z M 2.359375 -0.59375 "/></g></g></g><g fill="#ff1616" fill-opacity="1"><g transform="translate(179.988899, 210.644429)"><g><path d="M 4.578125 -1.875 L 4.578125 -3.140625 L 3.25 -3.140625 C 2.738281 -3.140625 2.351562 -3.03125 2.09375 -2.8125 C 1.84375 -2.59375 1.71875 -2.253906 1.71875 -1.796875 C 1.71875 -1.378906 1.84375 -1.046875 2.09375 -0.796875 C 2.351562 -0.554688 2.703125 -0.4375 3.140625 -0.4375 C 3.578125 -0.4375 3.925781 -0.566406 4.1875 -0.828125 C 4.445312 -1.097656 4.578125 -1.445312 4.578125 -1.875 Z M 5.625 -3.734375 L 5.625 -0.59375 L 6.546875 -0.59375 L 6.546875 0 L 4.578125 0 L 4.578125 -0.640625 C 4.347656 -0.367188 4.082031 -0.164062 3.78125 -0.03125 C 3.488281 0.09375 3.140625 0.15625 2.734375 0.15625 C 2.078125 0.15625 1.550781 -0.015625 1.15625 -0.359375 C 0.769531 -0.710938 0.578125 -1.191406 0.578125 -1.796875 C 0.578125 -2.410156 0.796875 -2.890625 1.234375 -3.234375 C 1.679688 -3.578125 2.3125 -3.75 3.125 -3.75 L 4.578125 -3.75 L 4.578125 -4.15625 C 4.578125 -4.601562 4.4375 -4.953125 4.15625 -5.203125 C 3.882812 -5.453125 3.503906 -5.578125 3.015625 -5.578125 C 2.597656 -5.578125 2.265625 -5.484375 2.015625 -5.296875 C 1.773438 -5.109375 1.625 -4.832031 1.5625 -4.46875 L 1.03125 -4.46875 L 1.03125 -5.671875 C 1.394531 -5.828125 1.742188 -5.941406 2.078125 -6.015625 C 2.421875 -6.097656 2.753906 -6.140625 3.078125 -6.140625 C 3.898438 -6.140625 4.53125 -5.929688 4.96875 -5.515625 C 5.40625 -5.109375 5.625 -4.515625 5.625 -3.734375 Z M 5.625 -3.734375 "/></g></g></g><g fill="#ff1616" fill-opacity="1"><g transform="translate(196.074608, 210.644429)"><g><path d="M 1.25 -5.375 L 0.328125 -5.375 L 0.328125 -5.984375 L 1.25 -5.984375 L 1.25 -7.828125 L 2.28125 -7.828125 L 2.28125 -5.984375 L 4.234375 -5.984375 L 4.234375 -5.375 L 2.28125 -5.375 L 2.28125 -1.578125 C 2.28125 -1.078125 2.328125 -0.753906 2.421875 -0.609375 C 2.523438 -0.460938 2.707031 -0.390625 2.96875 -0.390625 C 3.238281 -0.390625 3.4375 -0.46875 3.5625 -0.625 C 3.6875 -0.789062 3.75 -1.050781 3.75 -1.40625 L 4.53125 -1.40625 C 4.507812 -0.863281 4.363281 -0.46875 4.09375 -0.21875 C 3.820312 0.03125 3.414062 0.15625 2.875 0.15625 C 2.28125 0.15625 1.859375 0.0234375 1.609375 -0.234375 C 1.367188 -0.492188 1.25 -0.941406 1.25 -1.578125 Z M 1.25 -5.375 "/></g></g></g><g fill="#ff1616" fill-opacity="1"><g transform="translate(209.921661, 210.644429)"><g><path d="M 6.234375 -2.875 L 1.78125 -2.875 L 1.78125 -2.828125 C 1.78125 -2.023438 1.929688 -1.414062 2.234375 -1 C 2.535156 -0.59375 2.984375 -0.390625 3.578125 -0.390625 C 4.035156 -0.390625 4.410156 -0.507812 4.703125 -0.75 C 4.992188 -0.988281 5.195312 -1.34375 5.3125 -1.8125 L 6.140625 -1.8125 C 5.972656 -1.15625 5.664062 -0.660156 5.21875 -0.328125 C 4.78125 -0.00390625 4.195312 0.15625 3.46875 0.15625 C 2.601562 0.15625 1.90625 -0.128906 1.375 -0.703125 C 0.84375 -1.273438 0.578125 -2.035156 0.578125 -2.984375 C 0.578125 -3.929688 0.835938 -4.691406 1.359375 -5.265625 C 1.878906 -5.847656 2.5625 -6.140625 3.40625 -6.140625 C 4.3125 -6.140625 5.003906 -5.859375 5.484375 -5.296875 C 5.972656 -4.742188 6.222656 -3.9375 6.234375 -2.875 Z M 5.015625 -3.46875 C 4.992188 -4.164062 4.847656 -4.691406 4.578125 -5.046875 C 4.304688 -5.398438 3.914062 -5.578125 3.40625 -5.578125 C 2.925781 -5.578125 2.550781 -5.398438 2.28125 -5.046875 C 2.007812 -4.691406 1.84375 -4.164062 1.78125 -3.46875 Z M 5.015625 -3.46875 "/></g></g></g><g fill="#ff1616" fill-opacity="1"><g transform="translate(225.956744, 210.644429)"><g><path d="M 4.953125 -7.34375 L 4.40625 -7.34375 C 4.40625 -7.625 4.328125 -7.835938 4.171875 -7.984375 C 4.015625 -8.128906 3.785156 -8.203125 3.484375 -8.203125 C 3.097656 -8.203125 2.828125 -8.09375 2.671875 -7.875 C 2.515625 -7.664062 2.4375 -7.289062 2.4375 -6.75 L 2.4375 -5.984375 L 4.109375 -5.984375 L 4.109375 -5.375 L 2.4375 -5.375 L 2.4375 -0.59375 L 3.765625 -0.59375 L 3.765625 0 L 0.421875 0 L 0.421875 -0.59375 L 1.40625 -0.59375 L 1.40625 -5.375 L 0.421875 -5.375 L 0.421875 -5.984375 L 1.40625 -5.984375 L 1.40625 -6.71875 C 1.40625 -7.382812 1.578125 -7.890625 1.921875 -8.234375 C 2.273438 -8.578125 2.785156 -8.75 3.453125 -8.75 C 3.703125 -8.75 3.953125 -8.722656 4.203125 -8.671875 C 4.453125 -8.628906 4.703125 -8.5625 4.953125 -8.46875 Z M 4.953125 -7.34375 "/></g></g></g><g fill="#ff1616" fill-opacity="1"><g transform="translate(239.43818, 210.644429)"><g><path d="M 3.46875 -0.390625 C 4.019531 -0.390625 4.4375 -0.609375 4.71875 -1.046875 C 5 -1.484375 5.140625 -2.128906 5.140625 -2.984375 C 5.140625 -3.835938 5 -4.484375 4.71875 -4.921875 C 4.4375 -5.359375 4.019531 -5.578125 3.46875 -5.578125 C 2.90625 -5.578125 2.484375 -5.359375 2.203125 -4.921875 C 1.921875 -4.484375 1.78125 -3.835938 1.78125 -2.984375 C 1.78125 -2.128906 1.921875 -1.484375 2.203125 -1.046875 C 2.492188 -0.609375 2.914062 -0.390625 3.46875 -0.390625 Z M 3.46875 0.15625 C 2.59375 0.15625 1.890625 -0.128906 1.359375 -0.703125 C 0.835938 -1.273438 0.578125 -2.035156 0.578125 -2.984375 C 0.578125 -3.941406 0.835938 -4.707031 1.359375 -5.28125 C 1.890625 -5.851562 2.59375 -6.140625 3.46875 -6.140625 C 4.34375 -6.140625 5.039062 -5.851562 5.5625 -5.28125 C 6.09375 -4.707031 6.359375 -3.941406 6.359375 -2.984375 C 6.359375 -2.035156 6.09375 -1.273438 5.5625 -0.703125 C 5.039062 -0.128906 4.34375 0.15625 3.46875 0.15625 Z M 3.46875 0.15625 "/></g></g></g><g fill="#ff1616" fill-opacity="1"><g transform="translate(255.591383, 210.644429)"><g><path d="M 5.5 -5.984375 L 5.5 -4.5 L 4.90625 -4.5 C 4.882812 -4.789062 4.800781 -5.007812 4.65625 -5.15625 C 4.507812 -5.300781 4.296875 -5.375 4.015625 -5.375 C 3.503906 -5.375 3.113281 -5.195312 2.84375 -4.84375 C 2.570312 -4.488281 2.4375 -3.984375 2.4375 -3.328125 L 2.4375 -0.59375 L 3.640625 -0.59375 L 3.640625 0 L 0.46875 0 L 0.46875 -0.59375 L 1.40625 -0.59375 L 1.40625 -5.390625 L 0.421875 -5.390625 L 0.421875 -5.984375 L 2.4375 -5.984375 L 2.4375 -4.921875 C 2.644531 -5.328125 2.90625 -5.628906 3.21875 -5.828125 C 3.539062 -6.035156 3.929688 -6.140625 4.390625 -6.140625 C 4.554688 -6.140625 4.734375 -6.125 4.921875 -6.09375 C 5.109375 -6.070312 5.300781 -6.035156 5.5 -5.984375 Z M 5.5 -5.984375 "/></g></g></g><g fill="#ff1616" fill-opacity="1"><g transform="translate(270.315899, 210.644429)"><g><path d="M 5.96875 -4.8125 C 6.164062 -5.25 6.414062 -5.578125 6.71875 -5.796875 C 7.03125 -6.023438 7.394531 -6.140625 7.8125 -6.140625 C 8.4375 -6.140625 8.898438 -5.941406 9.203125 -5.546875 C 9.515625 -5.160156 9.671875 -4.578125 9.671875 -3.796875 L 9.671875 -0.59375 L 10.609375 -0.59375 L 10.609375 0 L 7.734375 0 L 7.734375 -0.59375 L 8.640625 -0.59375 L 8.640625 -3.6875 C 8.640625 -4.289062 8.546875 -4.722656 8.359375 -4.984375 C 8.179688 -5.242188 7.882812 -5.375 7.46875 -5.375 C 7.007812 -5.375 6.660156 -5.195312 6.421875 -4.84375 C 6.179688 -4.5 6.0625 -3.992188 6.0625 -3.328125 L 6.0625 -0.59375 L 6.953125 -0.59375 L 6.953125 0 L 4.125 0 L 4.125 -0.59375 L 5.015625 -0.59375 L 5.015625 -3.71875 C 5.015625 -4.3125 4.925781 -4.734375 4.75 -4.984375 C 4.570312 -5.242188 4.273438 -5.375 3.859375 -5.375 C 3.398438 -5.375 3.046875 -5.195312 2.796875 -4.84375 C 2.554688 -4.5 2.4375 -3.992188 2.4375 -3.328125 L 2.4375 -0.59375 L 3.34375 -0.59375 L 3.34375 0 L 0.46875 0 L 0.46875 -0.59375 L 1.40625 -0.59375 L 1.40625 -5.390625 L 0.421875 -5.390625 L 0.421875 -5.984375 L 2.4375 -5.984375 L 2.4375 -4.921875 C 2.632812 -5.316406 2.878906 -5.617188 3.171875 -5.828125 C 3.460938 -6.035156 3.796875 -6.140625 4.171875 -6.140625 C 4.640625 -6.140625 5.03125 -6.023438 5.34375 -5.796875 C 5.65625 -5.566406 5.863281 -5.238281 5.96875 -4.8125 Z M 5.96875 -4.8125 "/></g></g></g><g fill="#ff1616" fill-opacity="1"><g transform="translate(290.457065, 210.644429)"><g><path d="M 6.234375 -2.875 L 1.78125 -2.875 L 1.78125 -2.828125 C 1.78125 -2.023438 1.929688 -1.414062 2.234375 -1 C 2.535156 -0.59375 2.984375 -0.390625 3.578125 -0.390625 C 4.035156 -0.390625 4.410156 -0.507812 4.703125 -0.75 C 4.992188 -0.988281 5.195312 -1.34375 5.3125 -1.8125 L 6.140625 -1.8125 C 5.972656 -1.15625 5.664062 -0.660156 5.21875 -0.328125 C 4.78125 -0.00390625 4.195312 0.15625 3.46875 0.15625 C 2.601562 0.15625 1.90625 -0.128906 1.375 -0.703125 C 0.84375 -1.273438 0.578125 -2.035156 0.578125 -2.984375 C 0.578125 -3.929688 0.835938 -4.691406 1.359375 -5.265625 C 1.878906 -5.847656 2.5625 -6.140625 3.40625 -6.140625 C 4.3125 -6.140625 5.003906 -5.859375 5.484375 -5.296875 C 5.972656 -4.742188 6.222656 -3.9375 6.234375 -2.875 Z M 5.015625 -3.46875 C 4.992188 -4.164062 4.847656 -4.691406 4.578125 -5.046875 C 4.304688 -5.398438 3.914062 -5.578125 3.40625 -5.578125 C 2.925781 -5.578125 2.550781 -5.398438 2.28125 -5.046875 C 2.007812 -4.691406 1.84375 -4.164062 1.78125 -3.46875 Z M 5.015625 -3.46875 "/></g></g></g><path fill="#ff1616" d="M 74.90625 186.113281 Z M 74.421875 185.75 C 74.382812 185.730469 74.34375 185.710938 74.308594 185.695312 C 74.34375 185.710938 74.382812 185.730469 74.421875 185.75 Z M 86.351562 203.722656 L 73.441406 190.816406 L 61.371094 202.886719 C 60.476562 203.78125 59.027344 203.78125 58.132812 202.886719 C 57.234375 201.992188 57.234375 200.542969 58.132812 199.648438 L 70.945312 186.832031 L 70.050781 185.9375 L 69.058594 186.929688 C 68.296875 187.6875 67.066406 187.6875 66.308594 186.929688 L 56.914062 177.535156 C 56.527344 177.152344 56.527344 176.527344 56.914062 176.144531 C 57.296875 175.761719 57.921875 175.761719 58.304688 176.144531 L 64.105469 181.945312 L 65.265625 180.785156 L 59.464844 174.984375 C 59.078125 174.601562 59.078125 173.976562 59.464844 173.59375 C 59.847656 173.210938 60.46875 173.210938 60.855469 173.59375 L 66.65625 179.394531 L 67.816406 178.238281 L 62.011719 172.433594 C 61.628906 172.050781 61.628906 171.429688 62.011719 171.046875 C 62.398438 170.660156 63.019531 170.660156 63.402344 171.046875 L 70.582031 178.222656 L 72.796875 180.4375 C 73.558594 181.199219 73.558594 182.429688 72.796875 183.1875 L 71.804688 184.179688 L 73.082031 185.460938 C 73.3125 185.441406 73.542969 185.449219 73.769531 185.496094 L 75.917969 183.347656 L 77.671875 185.101562 L 75.929688 186.84375 C 75.96875 186.878906 76.015625 186.910156 76.054688 186.945312 L 89.589844 200.484375 C 90.484375 201.378906 90.484375 202.828125 89.589844 203.722656 C 88.695312 204.617188 87.246094 204.617188 86.351562 203.722656 " fill-opacity="1" fill-rule="nonzero"/><path fill="#ff1616" d="M 76.605469 176.125 C 78.792969 173.9375 86.445312 169.996094 88.734375 172.285156 C 91.023438 174.570312 87.078125 182.226562 84.894531 184.410156 C 82.710938 186.597656 79.082031 186.511719 76.792969 184.222656 C 74.503906 181.933594 74.421875 178.308594 76.605469 176.125 " fill-opacity="1" fill-rule="nonzero"/><path fill="#ff1616" d="M 95.230469 189.460938 C 95.867188 189.460938 96.386719 188.941406 96.386719 188.300781 C 96.386719 187.667969 95.867188 187.148438 95.230469 187.148438 C 94.59375 187.148438 94.074219 187.667969 94.074219 188.300781 C 94.074219 188.941406 94.59375 189.460938 95.230469 189.460938 Z M 92.78125 188.300781 C 92.78125 186.953125 93.878906 185.851562 95.230469 185.851562 C 96.582031 185.851562 97.679688 186.953125 97.679688 188.300781 C 97.679688 189.65625 96.582031 190.753906 95.230469 190.753906 C 93.878906 190.753906 92.78125 189.65625 92.78125 188.300781 " fill-opacity="1" fill-rule="nonzero"/><path fill="#ff1616" d="M 51.839844 187.148438 C 51.203125 187.148438 50.6875 187.667969 50.6875 188.300781 C 50.6875 188.941406 51.203125 189.460938 51.839844 189.460938 C 52.476562 189.460938 52.996094 188.941406 52.996094 188.300781 C 52.996094 187.667969 52.476562 187.148438 51.839844 187.148438 Z M 54.289062 188.300781 C 54.289062 189.65625 53.191406 190.753906 51.839844 190.753906 C 50.488281 190.753906 49.390625 189.65625 49.390625 188.300781 C 49.390625 186.953125 50.488281 185.851562 51.839844 185.851562 C 53.191406 185.851562 54.289062 186.953125 54.289062 188.300781 " fill-opacity="1" fill-rule="nonzero"/><path fill="#ff1616" d="M 94.523438 184.292969 C 94.484375 184.300781 94.441406 184.304688 94.402344 184.304688 C 94.097656 184.304688 93.824219 184.085938 93.769531 183.773438 C 93.371094 181.644531 92.644531 179.597656 91.605469 177.695312 C 91.433594 177.382812 91.550781 176.988281 91.863281 176.816406 C 92.179688 176.648438 92.574219 176.761719 92.746094 177.074219 C 93.847656 179.097656 94.621094 181.273438 95.039062 183.539062 C 95.105469 183.890625 94.875 184.230469 94.523438 184.292969 " fill-opacity="1" fill-rule="nonzero"/><path fill="#ff1616" d="M 82.402344 168.871094 C 82.3125 168.871094 82.21875 168.851562 82.128906 168.8125 C 76.714844 166.300781 70.324219 166.28125 64.894531 168.746094 C 64.566406 168.898438 64.183594 168.753906 64.035156 168.425781 C 63.886719 168.101562 64.03125 167.71875 64.355469 167.570312 C 70.128906 164.941406 76.917969 164.96875 82.675781 167.636719 C 83 167.785156 83.140625 168.171875 82.992188 168.496094 C 82.882812 168.730469 82.648438 168.871094 82.402344 168.871094 " fill-opacity="1" fill-rule="nonzero"/><path fill="#ff1616" d="M 53.121094 183.773438 C 53.0625 184.085938 52.789062 184.304688 52.484375 184.304688 C 52.445312 184.304688 52.40625 184.300781 52.367188 184.292969 C 52.011719 184.230469 51.78125 183.890625 51.847656 183.539062 C 52.167969 181.800781 52.703125 180.105469 53.4375 178.492188 C 53.585938 178.167969 53.96875 178.027344 54.292969 178.171875 C 54.621094 178.320312 54.761719 178.703125 54.617188 179.027344 C 53.925781 180.546875 53.421875 182.144531 53.121094 183.773438 " fill-opacity="1" fill-rule="nonzero"/><path fill="#ff1616" d="M 55.710938 200.0625 C 55.503906 200.0625 55.296875 199.960938 55.171875 199.777344 C 53.835938 197.777344 52.847656 195.59375 52.226562 193.285156 C 52.132812 192.9375 52.339844 192.582031 52.683594 192.488281 C 53.03125 192.40625 53.382812 192.601562 53.476562 192.949219 C 54.0625 195.121094 54.992188 197.175781 56.25 199.054688 C 56.449219 199.351562 56.367188 199.753906 56.070312 199.953125 C 55.960938 200.027344 55.835938 200.0625 55.710938 200.0625 " fill-opacity="1" fill-rule="nonzero"/><path fill="#ff1616" d="M 62.238281 204.949219 C 65.578125 207.105469 69.453125 208.246094 73.441406 208.246094 C 77.585938 208.246094 81.582031 207.027344 85 204.71875 C 85.296875 204.515625 85.695312 204.59375 85.898438 204.890625 C 86.101562 205.1875 86.023438 205.589844 85.726562 205.789062 C 82.089844 208.246094 77.84375 209.542969 73.441406 209.542969 C 69.203125 209.542969 65.085938 208.332031 61.535156 206.039062 C 61.238281 205.84375 61.148438 205.445312 61.34375 205.144531 C 61.539062 204.84375 61.941406 204.757812 62.238281 204.949219 " fill-opacity="1" fill-rule="nonzero"/><path fill="#ff1616" d="M 91.203125 200.019531 C 91.078125 200.019531 90.957031 199.984375 90.84375 199.910156 C 90.546875 199.714844 90.46875 199.3125 90.664062 199.011719 C 91.914062 197.136719 92.839844 195.085938 93.417969 192.914062 C 93.511719 192.570312 93.859375 192.367188 94.210938 192.453125 C 94.558594 192.546875 94.761719 192.902344 94.671875 193.25 C 94.054688 195.554688 93.070312 197.738281 91.746094 199.730469 C 91.621094 199.917969 91.414062 200.019531 91.203125 200.019531 " fill-opacity="1" fill-rule="nonzero"/><path fill="#ff1616" d="M 112.648438 193.011719 L 102.449219 193.011719 C 102.1875 194.414062 101.824219 195.785156 101.367188 197.113281 L 112.648438 197.113281 Z M 104.105469 184.734375 C 104.203125 185.714844 104.253906 186.65625 104.253906 187.574219 C 104.253906 188.496094 104.203125 189.4375 104.105469 190.417969 L 112.742188 190.417969 L 112.742188 184.734375 Z M 102.449219 182.140625 L 112.648438 182.140625 L 112.648438 178.035156 L 101.367188 178.035156 C 101.824219 179.367188 102.1875 180.734375 102.449219 182.140625 Z M 99.8125 197.617188 C 99.816406 197.589844 99.8125 197.558594 99.820312 197.53125 C 100.464844 195.832031 100.941406 194.054688 101.242188 192.253906 C 101.25 192.203125 101.273438 192.160156 101.292969 192.113281 C 101.53125 190.636719 101.664062 189.121094 101.664062 187.574219 C 101.664062 186.03125 101.53125 184.515625 101.292969 183.035156 C 101.273438 182.988281 101.25 182.945312 101.242188 182.894531 C 100.941406 181.09375 100.464844 179.320312 99.820312 177.617188 C 99.8125 177.589844 99.816406 177.5625 99.8125 177.535156 C 95.753906 166.917969 85.46875 159.355469 73.441406 159.355469 C 57.882812 159.355469 45.226562 172.015625 45.226562 187.574219 C 45.226562 203.136719 57.882812 215.792969 73.441406 215.792969 C 85.46875 215.792969 95.753906 208.230469 99.8125 197.617188 Z M 73.441406 156.765625 C 85.710938 156.765625 96.914062 164.21875 101.738281 175.445312 L 112.742188 175.445312 L 112.742188 160.332031 C 112.742188 159.613281 113.320312 159.035156 114.039062 159.035156 C 114.753906 159.035156 115.332031 159.613281 115.332031 160.332031 L 115.332031 214.820312 C 115.332031 215.535156 114.753906 216.113281 114.039062 216.113281 C 113.320312 216.113281 112.742188 215.535156 112.742188 214.820312 L 112.742188 199.703125 L 101.738281 199.703125 C 96.914062 210.933594 85.710938 218.386719 73.441406 218.386719 C 56.453125 218.386719 42.632812 204.5625 42.632812 187.574219 C 42.632812 170.585938 56.453125 156.765625 73.441406 156.765625 " fill-opacity="1" fill-rule="nonzero"/></svg>